<mxfile host="app.diagrams.net" modified="2022-03-09T14:36:36.465Z" agent="5.0 (Windows NT 10.0; Win64; x64) AppleWebKit/537.36 (KHTML, like Gecko) Chrome/99.0.4844.51 Safari/537.36" etag="eVKdyzxCvu5gyM72TXfk" version="17.0.0" type="github">
  <diagram id="ZRN7CmYmawFdVtozykcS" name="Page-1">
    <mxGraphModel dx="1422" dy="1805" grid="1" gridSize="10" guides="1" tooltips="1" connect="1" arrows="1" fold="1" page="1" pageScale="1" pageWidth="850" pageHeight="1100" math="0" shadow="0">
      <root>
        <mxCell id="0" />
        <mxCell id="1" parent="0" />
        <mxCell id="N--YdgX6oC7Mbpfn2w94-1" style="edgeStyle=orthogonalEdgeStyle;rounded=0;orthogonalLoop=1;jettySize=auto;html=1;exitX=0.855;exitY=0.145;exitDx=0;exitDy=0;exitPerimeter=0;entryX=0;entryY=0.5;entryDx=0;entryDy=0;fontSize=24;strokeWidth=3;" parent="1" source="N--YdgX6oC7Mbpfn2w94-3" target="N--YdgX6oC7Mbpfn2w94-7" edge="1">
          <mxGeometry relative="1" as="geometry" />
        </mxCell>
        <mxCell id="N--YdgX6oC7Mbpfn2w94-2" style="edgeStyle=orthogonalEdgeStyle;rounded=0;orthogonalLoop=1;jettySize=auto;html=1;exitX=0.855;exitY=0.855;exitDx=0;exitDy=0;exitPerimeter=0;fontSize=24;strokeWidth=3;entryX=0;entryY=0.5;entryDx=0;entryDy=0;" parent="1" source="N--YdgX6oC7Mbpfn2w94-3" target="bcmN86p39Nq4bRaHskO_-3" edge="1">
          <mxGeometry relative="1" as="geometry">
            <mxPoint x="260" y="90" as="targetPoint" />
          </mxGeometry>
        </mxCell>
        <mxCell id="N--YdgX6oC7Mbpfn2w94-3" value="" style="strokeWidth=2;html=1;shape=mxgraph.flowchart.start_2;whiteSpace=wrap;" parent="1" vertex="1">
          <mxGeometry x="10" y="35" width="30" height="30" as="geometry" />
        </mxCell>
        <mxCell id="N--YdgX6oC7Mbpfn2w94-4" value="" style="strokeWidth=2;html=1;shape=mxgraph.flowchart.start_2;whiteSpace=wrap;" parent="1" vertex="1">
          <mxGeometry x="640" y="330" width="50" height="50" as="geometry" />
        </mxCell>
        <mxCell id="N--YdgX6oC7Mbpfn2w94-5" value="" style="strokeWidth=2;html=1;shape=mxgraph.flowchart.start_2;whiteSpace=wrap;fillColor=#000000;" parent="1" vertex="1">
          <mxGeometry x="650" y="340" width="30" height="30" as="geometry" />
        </mxCell>
        <mxCell id="N--YdgX6oC7Mbpfn2w94-6" style="edgeStyle=orthogonalEdgeStyle;rounded=0;orthogonalLoop=1;jettySize=auto;html=1;exitX=1;exitY=0.5;exitDx=0;exitDy=0;entryX=0;entryY=0.5;entryDx=0;entryDy=0;fontSize=24;strokeWidth=3;entryPerimeter=0;" parent="1" source="N--YdgX6oC7Mbpfn2w94-7" target="N--YdgX6oC7Mbpfn2w94-16" edge="1">
          <mxGeometry relative="1" as="geometry">
            <mxPoint x="530" y="40" as="targetPoint" />
          </mxGeometry>
        </mxCell>
        <mxCell id="N--YdgX6oC7Mbpfn2w94-7" value="&lt;div&gt;&lt;span style=&quot;font-size: 24px&quot;&gt;decrese_HP&lt;/span&gt;&lt;/div&gt;" style="rounded=1;whiteSpace=wrap;html=1;fillColor=#FFFFFF;strokeWidth=3;" parent="1" vertex="1">
          <mxGeometry x="390" y="10" width="150" height="60" as="geometry" />
        </mxCell>
        <mxCell id="bcmN86p39Nq4bRaHskO_-1" style="edgeStyle=orthogonalEdgeStyle;rounded=0;orthogonalLoop=1;jettySize=auto;html=1;entryX=0.5;entryY=0;entryDx=0;entryDy=0;strokeWidth=3;exitX=0.5;exitY=0.167;exitDx=0;exitDy=0;exitPerimeter=0;" parent="1" source="N--YdgX6oC7Mbpfn2w94-16" target="N--YdgX6oC7Mbpfn2w94-7" edge="1">
          <mxGeometry relative="1" as="geometry">
            <Array as="points">
              <mxPoint x="665" y="-30" />
              <mxPoint x="465" y="-30" />
            </Array>
          </mxGeometry>
        </mxCell>
        <mxCell id="bcmN86p39Nq4bRaHskO_-10" style="edgeStyle=orthogonalEdgeStyle;rounded=0;orthogonalLoop=1;jettySize=auto;html=1;entryX=0.5;entryY=0;entryDx=0;entryDy=0;strokeWidth=3;" parent="1" source="N--YdgX6oC7Mbpfn2w94-16" target="bcmN86p39Nq4bRaHskO_-9" edge="1">
          <mxGeometry relative="1" as="geometry" />
        </mxCell>
        <mxCell id="N--YdgX6oC7Mbpfn2w94-16" value="" style="strokeWidth=2;html=1;shape=mxgraph.flowchart.start_2;whiteSpace=wrap;" parent="1" vertex="1">
          <mxGeometry x="650" y="25" width="30" height="30" as="geometry" />
        </mxCell>
        <mxCell id="bcmN86p39Nq4bRaHskO_-8" style="edgeStyle=orthogonalEdgeStyle;rounded=0;orthogonalLoop=1;jettySize=auto;html=1;entryX=0.553;entryY=1;entryDx=0;entryDy=0;entryPerimeter=0;strokeWidth=3;" parent="1" source="bcmN86p39Nq4bRaHskO_-3" target="N--YdgX6oC7Mbpfn2w94-7" edge="1">
          <mxGeometry relative="1" as="geometry">
            <Array as="points">
              <mxPoint x="473" y="120" />
            </Array>
          </mxGeometry>
        </mxCell>
        <mxCell id="bcmN86p39Nq4bRaHskO_-3" value="&lt;span style=&quot;font-size: 24px&quot;&gt;buy_item&lt;/span&gt;" style="rounded=1;whiteSpace=wrap;html=1;fillColor=#FFFFFF;strokeWidth=3;" parent="1" vertex="1">
          <mxGeometry x="180" y="100" width="150" height="60" as="geometry" />
        </mxCell>
        <mxCell id="bcmN86p39Nq4bRaHskO_-18" style="edgeStyle=orthogonalEdgeStyle;rounded=0;orthogonalLoop=1;jettySize=auto;html=1;entryX=0;entryY=0.5;entryDx=0;entryDy=0;strokeWidth=3;" parent="1" source="bcmN86p39Nq4bRaHskO_-4" target="bcmN86p39Nq4bRaHskO_-16" edge="1">
          <mxGeometry relative="1" as="geometry" />
        </mxCell>
        <mxCell id="bcmN86p39Nq4bRaHskO_-4" value="&lt;span style=&quot;font-size: 24px&quot;&gt;sell_item&lt;/span&gt;" style="rounded=1;whiteSpace=wrap;html=1;fillColor=#FFFFFF;strokeWidth=3;" parent="1" vertex="1">
          <mxGeometry x="180" y="190" width="150" height="60" as="geometry" />
        </mxCell>
        <mxCell id="bcmN86p39Nq4bRaHskO_-6" style="edgeStyle=orthogonalEdgeStyle;rounded=0;orthogonalLoop=1;jettySize=auto;html=1;exitX=0.855;exitY=0.855;exitDx=0;exitDy=0;exitPerimeter=0;fontSize=24;strokeWidth=3;entryX=0;entryY=0.5;entryDx=0;entryDy=0;" parent="1" source="N--YdgX6oC7Mbpfn2w94-3" target="bcmN86p39Nq4bRaHskO_-4" edge="1">
          <mxGeometry relative="1" as="geometry">
            <mxPoint x="70" y="170" as="sourcePoint" />
            <mxPoint x="214.35000000000002" y="239.3499999999999" as="targetPoint" />
            <Array as="points">
              <mxPoint x="110" y="61" />
              <mxPoint x="110" y="220" />
            </Array>
          </mxGeometry>
        </mxCell>
        <mxCell id="bcmN86p39Nq4bRaHskO_-11" style="edgeStyle=orthogonalEdgeStyle;rounded=0;orthogonalLoop=1;jettySize=auto;html=1;entryX=0.5;entryY=0;entryDx=0;entryDy=0;entryPerimeter=0;strokeWidth=3;" parent="1" source="bcmN86p39Nq4bRaHskO_-9" target="N--YdgX6oC7Mbpfn2w94-4" edge="1">
          <mxGeometry relative="1" as="geometry" />
        </mxCell>
        <mxCell id="bcmN86p39Nq4bRaHskO_-9" value="&lt;span style=&quot;font-size: 24px&quot;&gt;character_death&lt;/span&gt;" style="rounded=1;whiteSpace=wrap;html=1;fillColor=#FFFFFF;strokeWidth=3;" parent="1" vertex="1">
          <mxGeometry x="570" y="190" width="190" height="60" as="geometry" />
        </mxCell>
        <mxCell id="bcmN86p39Nq4bRaHskO_-17" style="edgeStyle=orthogonalEdgeStyle;rounded=0;orthogonalLoop=1;jettySize=auto;html=1;entryX=0.5;entryY=1;entryDx=0;entryDy=0;strokeWidth=3;" parent="1" source="bcmN86p39Nq4bRaHskO_-12" target="bcmN86p39Nq4bRaHskO_-16" edge="1">
          <mxGeometry relative="1" as="geometry" />
        </mxCell>
        <mxCell id="bcmN86p39Nq4bRaHskO_-12" value="&lt;span style=&quot;font-size: 24px&quot;&gt;heal&lt;/span&gt;" style="rounded=1;whiteSpace=wrap;html=1;fillColor=#FFFFFF;strokeWidth=3;" parent="1" vertex="1">
          <mxGeometry x="180" y="280" width="150" height="60" as="geometry" />
        </mxCell>
        <mxCell id="bcmN86p39Nq4bRaHskO_-15" style="edgeStyle=orthogonalEdgeStyle;rounded=0;orthogonalLoop=1;jettySize=auto;html=1;exitX=0.855;exitY=0.855;exitDx=0;exitDy=0;exitPerimeter=0;fontSize=24;strokeWidth=3;entryX=0;entryY=0.5;entryDx=0;entryDy=0;" parent="1" source="N--YdgX6oC7Mbpfn2w94-3" target="bcmN86p39Nq4bRaHskO_-12" edge="1">
          <mxGeometry relative="1" as="geometry">
            <mxPoint x="90" y="290" as="sourcePoint" />
            <mxPoint x="234.35000000000002" y="449.3499999999999" as="targetPoint" />
            <Array as="points">
              <mxPoint x="110" y="61" />
              <mxPoint x="110" y="310" />
            </Array>
          </mxGeometry>
        </mxCell>
        <mxCell id="bcmN86p39Nq4bRaHskO_-20" style="edgeStyle=orthogonalEdgeStyle;rounded=0;orthogonalLoop=1;jettySize=auto;html=1;entryX=0.145;entryY=0.855;entryDx=0;entryDy=0;entryPerimeter=0;strokeWidth=3;" parent="1" source="bcmN86p39Nq4bRaHskO_-16" target="N--YdgX6oC7Mbpfn2w94-16" edge="1">
          <mxGeometry relative="1" as="geometry">
            <Array as="points">
              <mxPoint x="510" y="90" />
              <mxPoint x="654" y="90" />
            </Array>
          </mxGeometry>
        </mxCell>
        <mxCell id="bcmN86p39Nq4bRaHskO_-16" value="&lt;div&gt;&lt;span style=&quot;font-size: 24px&quot;&gt;increse_HP&lt;/span&gt;&lt;/div&gt;" style="rounded=1;whiteSpace=wrap;html=1;fillColor=#FFFFFF;strokeWidth=3;" parent="1" vertex="1">
          <mxGeometry x="410" y="190" width="150" height="60" as="geometry" />
        </mxCell>
        <mxCell id="pg5D6NtmL3ZLwmThI1Kp-1" value="&lt;span style=&quot;font-size: 14px&quot;&gt;Continuously decreasing&amp;nbsp;HP&lt;/span&gt;" style="text;html=1;strokeColor=none;fillColor=none;align=center;verticalAlign=middle;whiteSpace=wrap;rounded=0;" vertex="1" parent="1">
          <mxGeometry x="170" y="10" width="180" height="25" as="geometry" />
        </mxCell>
        <mxCell id="pg5D6NtmL3ZLwmThI1Kp-2" value="&lt;span style=&quot;font-size: 14px&quot;&gt;HP fully&amp;nbsp;&lt;br&gt;&lt;/span&gt;&lt;span style=&quot;font-size: 14px&quot;&gt;depleted&lt;/span&gt;" style="text;html=1;strokeColor=none;fillColor=none;align=center;verticalAlign=middle;whiteSpace=wrap;rounded=0;" vertex="1" parent="1">
          <mxGeometry x="600" y="105" width="60" height="50" as="geometry" />
        </mxCell>
        <mxCell id="pg5D6NtmL3ZLwmThI1Kp-3" value="&lt;span style=&quot;font-size: 14px&quot;&gt;Character died&lt;/span&gt;" style="text;html=1;strokeColor=none;fillColor=none;align=center;verticalAlign=middle;whiteSpace=wrap;rounded=0;" vertex="1" parent="1">
          <mxGeometry x="580" y="262.5" width="80" height="43.75" as="geometry" />
        </mxCell>
        <mxCell id="pg5D6NtmL3ZLwmThI1Kp-4" value="&lt;span style=&quot;font-size: 14px&quot;&gt;Want to heal&lt;/span&gt;" style="text;html=1;strokeColor=none;fillColor=none;align=center;verticalAlign=middle;whiteSpace=wrap;rounded=0;" vertex="1" parent="1">
          <mxGeometry x="120" y="262.5" width="50" height="52.5" as="geometry" />
        </mxCell>
        <mxCell id="pg5D6NtmL3ZLwmThI1Kp-5" value="&lt;span style=&quot;font-size: 14px&quot;&gt;Used healing item&lt;/span&gt;" style="text;html=1;strokeColor=none;fillColor=none;align=center;verticalAlign=middle;whiteSpace=wrap;rounded=0;" vertex="1" parent="1">
          <mxGeometry x="360" y="260" width="80" height="55" as="geometry" />
        </mxCell>
        <mxCell id="pg5D6NtmL3ZLwmThI1Kp-6" value="&lt;span style=&quot;font-size: 14px&quot;&gt;Want to sell item&lt;/span&gt;" style="text;html=1;strokeColor=none;fillColor=none;align=center;verticalAlign=middle;whiteSpace=wrap;rounded=0;" vertex="1" parent="1">
          <mxGeometry x="120" y="160" width="55" height="62.5" as="geometry" />
        </mxCell>
        <mxCell id="pg5D6NtmL3ZLwmThI1Kp-7" value="&lt;span style=&quot;font-size: 14px&quot;&gt;Want to buy item&lt;/span&gt;" style="text;html=1;strokeColor=none;fillColor=none;align=center;verticalAlign=middle;whiteSpace=wrap;rounded=0;" vertex="1" parent="1">
          <mxGeometry x="115" y="70" width="60" height="62.5" as="geometry" />
        </mxCell>
        <mxCell id="pg5D6NtmL3ZLwmThI1Kp-8" value="&lt;span style=&quot;font-size: 14px&quot;&gt;bought item&lt;/span&gt;" style="text;html=1;strokeColor=none;fillColor=none;align=center;verticalAlign=middle;whiteSpace=wrap;rounded=0;" vertex="1" parent="1">
          <mxGeometry x="355" y="88.75" width="90" height="25" as="geometry" />
        </mxCell>
        <mxCell id="pg5D6NtmL3ZLwmThI1Kp-9" value="&lt;span style=&quot;font-size: 14px&quot;&gt;sold item&lt;/span&gt;" style="text;html=1;strokeColor=none;fillColor=none;align=center;verticalAlign=middle;whiteSpace=wrap;rounded=0;" vertex="1" parent="1">
          <mxGeometry x="340" y="190" width="65" height="27.5" as="geometry" />
        </mxCell>
        <mxCell id="pg5D6NtmL3ZLwmThI1Kp-11" value="&lt;span style=&quot;font-size: 14px&quot;&gt;HP&amp;nbsp;&lt;br&gt;&lt;/span&gt;&lt;span style=&quot;font-size: 14px&quot;&gt;increased&lt;/span&gt;" style="text;html=1;strokeColor=none;fillColor=none;align=center;verticalAlign=middle;whiteSpace=wrap;rounded=0;" vertex="1" parent="1">
          <mxGeometry x="440" y="132.5" width="60" height="50" as="geometry" />
        </mxCell>
      </root>
    </mxGraphModel>
  </diagram>
</mxfile>
